<svg xmlns="http://www.w3.org/2000/svg" xmlns:xlink="http://www.w3.org/1999/xlink" preserveAspectRatio="xMidYMid meet" version="1.0" viewBox="0 0 10240 10240"><defs><linearGradient id="a"><stop offset="0" stop-color="#e682d6" stop-opacity="1"/><stop offset="1" stop-color="#f2c1c9" stop-opacity="1"/></linearGradient><linearGradient xlink:href="#a" id="b" x1="5188.498" x2="5260.996" y1="2387.329" y2="7442.824" gradientUnits="userSpaceOnUse"/></defs><path d="M4795 9739c-365-26-823-117-1180-234-713-235-1349-629-1890-1170-708-708-1163-1579-1339-2565-102-574-102-1156 0-1730 176-986 631-1857 1339-2565S3304 312 4290 136c574-102 1156-102 1730 0 986 176 1857 631 2565 1339s1163 1579 1339 2565c220 1230-43 2525-716 3533-197 295-380 519-623 762-708 708-1579 1163-2565 1339-389 69-829 93-1225 65zm820-393c961-105 1835-500 2567-1162 693-624 1214-1582 1372-2521 48-286 60-435 60-758 0-410-35-708-125-1065-269-1073-919-2010-1819-2619-621-421-1307-673-2062-758-212-24-694-24-906 0-977 110-1839 499-2574 1163-693 624-1214 1582-1372 2521-48 286-60 435-60 758 0 410 35 708 125 1065 269 1073 919 2010 1819 2619 677 459 1438 719 2265 775 122 8 575-4 710-18z" fill="#4870fe" fill-opacity="1"/><path d="M1920 7424c-85-33-133-71-178-142-129-202-145-633-38-1052 40-158 75-259 122-353 142-283 301-406 505-395 133 8 235 75 297 197 63 121 81 251 63 430-12 114-43 189-91 220-28.373 25.058-56.49 34.825-89 35-61 0-98-23-124-79-17-36-18-48-7-149 9-92 9-123-3-180-20-94-68.622-118.559-122-120-27.251-.736-80.622 31.387-105.622 55.387-58.54 74.677-85.762 149.487-143.378 328.613-4 19-11 58-17 85-22 108-45 335-43 428 3 126 25.833 258.822 61 285 22.56 16.793 28 16.793 121 0 31.506-5.689 52-22 75-51 63-78 150-99 208-50 102 86 74 231-69 363-81 74-115 94-223 129-41 13-132.315 34.532-199 15zm1200-81c-146.52-44.161-273.53-154.928-338-278-61-122-90-370-62-529 51-293 102-438 215-611 129-197 280-299 464-312 178-12 294 46 389 195 70 109 97 217 108 437 8 177-16 356-76 558-18 60-79 186-118 246-98 147-220 240-367 279-46 13-155.523 33.09-215 15zm332-489c124-213 158-623 68-832-25-58-51-79-108-88-125-20-255 127-322 361-12 44-26 91-31 105-16 49-32 223-25 289 11 114 15 130 48 192 30 56 49 75 103 105 123.785 31.416 214.01-44.158 267-132zm636 414c-20-10-49-34-65-54-27-36-28-43-31-158-5-206 61-1476 80-1540 21-69 78-120 163-143 177-50 222-56 381-51 167 6 210 17 324 84 134 78 219 188 278 359 58 169 66 445 17 639-105 426-509 769-1015 864-91 17-97 17-132 0zm290-437c9-5 35-17 57-26 151-73.09 220-109 315-204 146-147 198-304 179-537-5.26-109.179-37.477-241.348-123-309-78-60-220-86-365-68l-63 8-3 35c-3 35-16 322-35 769-14 321-13 341 5 341 8 0 23-4 33-9zm1519 338c-147-15-270.058-95.98-373.058-249.98-26.65-49.185-58.907-103.24-72.942-154.02-49.124-130.73-63.706-276.567-68-400-5-139 3-213 34-340 15.225-76.17 45.192-158.09 75-218 31-59 64-103 118-157 83.466-98.475 223.773-143.55 316-148 162.991-3.472 300.536 41.234 377.694 188.793 41.603 80.884 58.124 262.342 45.306 358.207-32 208-144 395-292 488-59.07 37.917-106.202 57.078-162 83-28.414 13.6-38.711 16.689-89.942 39.135C5779.019 6675.327 5867 6748 5908 6760c52.062 10.406 139.317 1.082 163.441-22.802 7.928-11.558 97.56-3.198 107.56 9.802 100.237 50.659 112.32 167.779 89.999 258-36.24 102.414-145.943 139.018-229 160-50 9-101.367 7.838-143 4zm-57-938c89-41 127-82 151-163 25-81 21-164-8-185-43-32-134-6-177 50-45 59-86 205-86 309v36l33-11c17-6 57-22 87-36zm1712-236c-42-54-44-47 186-850 33-115 79-280 102-365 45-168 64-200 127-221 66-21 143 20 164 89 10 34 1 73-100 442-62 223-120 430-131 460-10 30-42 138-70 239-27 102-32.856 165.45-64 206-36.69 51.459-154.204 72.817-214 0zm-351-37c-18-13-131-135-252-273-235-267-251-293-229-359 7-21 51-73 118-138 229-224 387-370 415-385 49-25 105-12 149 36 33 35 38 47 38 88 9.022 90.349-137.957 183.568-204 248l-204 200 80 90c301 337 314 357 285 427-35 83-128 113-196 66zm1092-11c-31-29-37-41-40-88-6-66-7-65 211-309l156-175-68-65c-332-320-329-317-336-353-13-67 14-125 69-151 44-21 83-20 120 2 17 11 141 126 278 256 82.417 105.53 247 242 247 295 0 69 20 41-263 362-114 130-219 241-233 247-49 23-101 15-141-21zm-3188-521c-164-75-274-326-248-566 19-173 83-313 182-402 82-74 157-101 274-99 148 2 257 109 315 311 12 41 16 98 16 225-22.294 258.468-60.064 448.014-294 533-86 30-177 29-245-2zm180-227c77-21 114-77 139-209 8.884-79.038 9.904-92 0-179-9-53-23-112-31-131-41-99-130-122-225-57-15 10-41 47-59 83-74 157-35 418 74 485 37 22 48 23 102 8zm660 215c-53-26-63-51-70-170-3-60-8-132-11-159l-5-50-41-1c-74.289-4.546-99.673-73.995-96-121 6-65 44-113 90-113h28v-114c0-204 36-323 122-403 95-87 267.27-96.673 318-53 32.472 48.27 44.49 111.621 4 161-26 28-76 48-108 42-37-7-78 12-95 45-9 17-16 72-19 149l-4 122 82-2c145.337-24.45 154.834 147.378 91 203-23 20-48 29-88 33-30 3-57 8-60 11s0 49 7 103c18 144 11 241-20 280-14 17-35 34-47 37-28.04 11.519-54.055 12.364-78 0zm-4218-814 6-83c16-228 79-719 107-832 5-22 14-67 20-100 18-107 65-335 79-382 33-111 157-169 230-107 44 36 46 72 18 215-14 68-33 165-42 214-9 50-20 110-25 135s-12 65-15 90-10 72-16 105c-12 72-57 469-54 473 3 3 175-19 325-43 71-11 103-12 127-4 99 32 108 174 19 264-45 44-89 58-221 70-38 4-100 13-138 21-62 13-293 44-325 44-60.173 1.584-94.169-38.808-95-80zm1017-82c-18-35-17-70 10-293 8-66 20-203 26-305 7-102 18-206 26-232 18-55 85-122 133-133 40-9 92 9 122 41 22 24 24 32 21 127-1 56-11 212-22 347-18 215-25 276-47 390-29.777 63.526-97.144 117.05-152 121-47.614 7.015-96.107-22.703-117-63zm516-33c-35-32-40-81-36-376 4-291 21-541 56-824 40-316 43-327 103-384 63-60 175-51 206 16 10 21 15 24 44 17 17-4 69-7 114-7 100 1 152 23 221 92 61 61 82 125 82 248 0 86-22 185-50 218-6 8 1 21 26 44 19 19 47 57 61 85 52 100 40 300-25 431-86 172-305 357-507 429-107.073 38.67-229.001 72.38-295 11zm339-371c144-79 221-177 221-281 0-35-5-55-17-64-29-24-225-13-271 15-13 8-18 366-5 366 3 0 36-16 72-36zm9-670c56-12 134-57 144-83 12-32 3-112-15-123-14-9-92-10-134-2-27 5-29 9-41 82-17 109-16 146 4 138 9-3 28-9 42-12zm663 979c-18-9-44-34-57-55-30-48-30-54 1-558 14-217 30-478 35-580 18-319 31-375 103-419 18-11 84-33 147-50 413-109 705 28 751 354 35 253-73 497-310 700l-80 69 17 29c22 37 59 67 84 67 10 0 42-12 70-26 42-21 59-25 96-19 109 16 155 139 92 243-25 41-109 95-191 122-149 51-304-20-418-191l-38-56-35 18-36 18-7 111c-7 104-9 114-39 153-54 71-126 98-185 70zm379-762c124-81 231-187 266-264 26-56 36.207-65.793 46.297-164 4.019-79.413-6.47-92.43-59.297-144-54-55-129-71-261-56l-89 10-2 104c-1 57-7 164-12 236-5 73-12 183-16 246l-6 113 24-12c13-7 62-38 109-69zm993 609c-155-31-264-152-294-326-29-168 28-370 150-536 79-105 195-181 319-208 34-7 62-16 62-20s-10-22-23-41c-18-27-30-35-61-37-44-4-75 7-166 60-71 42-121 48-170 23-77-40-98-141-45-212 36.789-51.525 96.644-84.728 147-112 227-117 408-99 529 51 68 84 106 173 150 353 20 78 23 118 23 295 10.882 123.863 1.213 201.425-37 314-83 243-247 383-467 399-41 3-94 1-117-3zm183-346c76-36 119-134 130-299l7-93-42-12c-110-29-206 46-246 194-22 80-17 176 10 206 23 25 92 27 141 4zm643 252c-76-52-76-56-84-904-4-450-3-602 6-633 25-81 102-121 319-165 65-13 114-15 215-11 134 5 163 12 269 62 145.187 75.025 230.363 235.565 255 369 46 251-51 470-307 698-28 25-52 49-52 52 0 4 19 27 41 51 47 51 82 58 127 27 89-62 186-40 239 54 53 92 4 198-120 257-110 53-170 63-251 42-116-30-202-90-285-200l-47-62-34 16-35 16-5 120c-4 97-9 127-26 155-44 76-155 103-225 56zm364-753c112-72 220-176 259-248 73-138 43-326-61-379-40-21-137-29-247-21l-96 7 6 57c3 31 6 142 6 246 1 262 10 416 24 408 6-4 55-35 109-70zm1153 605c-85-16-172-62-234-125-79.34-87.882-170.58-195.054-121-298 42-84 137-117 219-75 80.676 43.114 93.768 155.48 185 176 99 18 171-36 205-154 13-43 50-266 50-300 0-23-1-22-42 11-65 52-148 101-198 117-26 9-84 15-140 15-115 0-167-22-239-101-42-47-59-79-89-175-36-110 12-480 75-576 50-77 148-99 223-49 68 45 75 90 34 241-28 108-37 244-20 313 10 43 11 43 46 37 80-15 146-81 209-209 49-98 86-211 101-307 26-169 172-225 289-111 49 48 94 613 69 882-19 203-86 409-169 516-98 127-295 202-453 172zm-5066-506c-59.92-28.9-79.892-86.774-80-128 0-97 39-168 117-211 48-27 119-7 152 42 21 32 23 43 18 106-7 82-32 129-86 164-37 23-94 36-121 27z" fill="url(#b)" fill-opacity="1"/><path d="M1920 7424c-142-55-222-164-260-359-19-93-21-120-24-280-3-224 20-380 95-647 95-338 263-575 454-639 35-12 76-17 135-15 74 2 93 6 145 34 81 43 129 92 166 165 59 115 77 246 59 422-12 120-41 193-90 224-14 8-28 20-31 24-4 5-30 9-59 9-62 0-97-21-123-77-17-35-18-48-7-154 10-99 9-126-4-180-21-89-48-115-120-115-46-1-59 3-84 27-37 35-121 201-138 272-4 17-10 35-14 40-4 6-10 26-14 45s-11 58-17 85c-6 28-18 115-28 195-22 175-19 321 8 428 23 87 47 115 90 106 93-19 114-28 142-64 64-79 152-102 210-53 102 86 74 231-69 363-81 74-115 94-223 129-41 13-177 23-199 15zm1200-81c-8-2-24-8-35-13s-36-13-55-19c-80-25-193-137-248-246-99-198-94-535 13-848 54-157 125-290 210-389 77-92 227-188 319-206 66-13 210-7 260 11 150 54 263 218 295 427 45 298 5 617-110 867-97 211-249 352-434 401-46 13-193 23-215 15zm209-360c3-4 19-15 35-23 38-20 104-119 137-205 60-158 86-437 58-604-14-80-60-185-87-200-40-21-101-24-147-7-58 23-134 108-178 200-42 88-95 265-105 349-16 140-6 303 22 355 8 15 21 41 29 58 13 28 39 51 92 80 22 12 135 10 144-3zm759 285c-20-10-49-34-65-54-26-35-28-45-31-142-3-86 17-622 33-872 2-36 11-195 20-355 8-159 21-306 27-325 23-73 85-124 180-149 4-1 22-7 40-13 109-34 387-48 475-24 227 65 373 204 451 432 58 170 66 444 17 638-105 426-509 769-1015 864-91 17-97 17-132 0zm290-437c17-9 23-11 126-56 182-78 352-256 399-414 11-36 23-95 27-131 8-65-4-273-17-294-4-6-8-15-10-21-1-5-4-20-7-31-8-39-55-103-97-133-86-63-190-81-358-65-66 6-71 9-69 37 0 12-2 81-6 152-3 72-11 243-16 380-5 138-13 325-16 418-6 152-5 167 10 167 9 0 24-4 34-9zm1519 338c-147-15-267-97-370-251-25-37-48-64-51-60-4 3-4-1 0-11 3-9 2-23-4-30-14-18-49-135-69-228-21-102-24-368-5-479 32-198 103-351 212-461 41-41 93-83 115-93 22-9 49-22 60-27s30-10 42-12 26-6 29-10c14-13 170-7 223 9 57 17 59 18 130 81 42 38 85 107 122 198 25 63 27 249 4 325-36 117-59 174-95 229-44 68-126 152-183 188-23 14-44 29-47 32-7 10-129 61-145 61-7 0-27 6-45 14l-32 13 38 43c22 24 53 49 71 57 38 15 119 17 128 3 3-5 15-10 26-10 10 0 19-4 19-10 0-29 116 4 156 44 48 49 66 137 43 221-11 41-73 115-96 115-7 0-13 4-13 9 0 8-53 25-120 36-19 4-42 8-50 9-8 2-50-1-93-5zm-58-937c88-41 128-83 152-164 25-81 21-164-8-185-20-15-113-17-113-3 0 6-6 10-14 10-23 0-72 67-95 129-22 61-41 164-41 223v36l33-11c17-5 56-22 86-35zm1766-196c-45-20-67-50-72-100-5-44 16-134 103-436 14-47 26-92 28-100s13-42 24-75 34-112 51-175 43-155 57-205c14-49 30-110 36-135s15-51 20-57c6-7 12-30 15-50 2-21 7-45 10-53 4-8 7-19 7-25 1-12 2-12 121-14 81-1 94-3 83-15-7-8-17-11-22-8s-6 0-2-7c11-18 34 4 59 57 20 43 20 46 4 96-16 49-50 172-123 451-34 127-66 238-105 360-10 33-41 143-69 244-28 102-57 195-64 206-17 26-75 55-108 55-12-1-36-7-53-14zm-392-68c-13-6-114-114-225-241-112-126-211-239-222-251-32-36-44-60-50-95-10-66 6-86 277-342 44-41 109-103 145-138 100-95 133-115 184-108 34 4 51 14 82 49 36 40 38 46 33 93l-4 50-201 195-201 195 80 90c153 171 255 290 273 317 36 55 24 120-30 168-27 24-44 30-77 29-23 0-52-5-64-11zm1093-9c-36-28-56-70-56-116 0-44 13-66 96-159 34-38 109-123 168-189l106-120-97-94c-259-248-301-291-306-320-7-35 2-101 14-101 5 0 9-6 9-12 1-39 107-71 154-46 27 14 220 193 424 393l112 111v54c-1 62-7 72-140 222-41 46-133 149-203 230-70 80-139 150-153 157-40 18-98 13-128-10zm-3201-535c-98-43-212-202-230-319-2-11-7-38-11-60-13-65-5-259 12-286 6-10 15-47 16-66 1-7 5-13 10-13s7-4 4-9c-4-5-1-11 4-13 6-2 12-17 14-33s9-31 17-33c11-3 10-1-1 7s16 11 101 11c66 0 119-4 125-10 7-7 11-6 11 4 0 8-4 13-9 10-4-3-8 0-8 5 0 6-6 11-14 11s-13 8-12 18c0 9-4 16-9 15-6-1-11 7-12 17-1 11-10 36-20 57-26 55-26 257 1 328 40 106 95 151 172 139 85-12 132-74 158-207 16-80 16-158 1-198-7-20-16-79-17-111 0-15-4-26-8-23-9 5-20-18-20-41 0-11 22-14 111-14 81 0 108-3 103-12-4-7-3-8 5-4 6 4 9 11 6 16-3 4 1 11 7 14 10 4 10 8 2 11-14 7-6 44 13 63 8 8 11 23 7 38-3 13-2 24 3 24 6 0 9 54 8 133-1 72-4 132-5 132s-3 15-5 32c-6 84-87 226-171 301-101 90-246 117-359 66zm841-9c-34-18-59-50-62-80-2-11-5-65-8-120s-8-118-11-140c-5-39-7-40-45-41-45-2-65-14-87-57-35-69 13-177 79-177 26 0 28-3 29-37 1-51 5-136 7-145 1-5 50-8 108-8 69 0 103 4 99 10s-12 8-18 4c-7-3-3 2 7 10 20 16 20 16 0 17-15 0-16 2-4 7 10 5 15 22 15 51v44l38 2c21 0 40-2 43-7 9-15 83 0 106 21 19 18 23 32 23 87 0 63-2 67-34 95-19 15-37 27-40 26-3 0-30 2-60 6l-54 8 9 72c5 40 9 119 9 177 0 96-2 108-22 130-13 13-23 27-23 32 0 4-3 7-7 6-5-1-21 4-36 10-34 14-26 15-61-3zm-4136-747c0-5-4-6-10-3-5 3-10 0-10-8s-10-22-22-30c-21-15-6-16 204-16 125 0 232-2 237-6 5-3 12-1 15 4 7 11-67 25-113 22-20-2-31 1-27 7 6 11-19 10-30 0-10-11-34 3-27 16 4 6 0 6-9-2-10-8-19-9-22-3-3 5-15 7-27 4-11-3-31 0-44 7-19 10-27 10-39 1-11-9-16-9-22 0-5 8-3 10 7 4 8-5 11-4 6 1-11 12-67 14-67 2zm553-73c0-6 11-11 24-11s23 3 23 7-10 9-23 11c-14 3-24 0-24-7zm97-30c13-14 29-25 36-25s18-8 24-17c8-12 10-13 7-3-2 8-14 21-28 27-13 7-20 13-15 13 12 0-26 29-38 30-5 0 1-11 14-25z" fill="none"/></svg>