<?xml version="1.0" encoding="UTF-8"?><svg version="1.1" xmlns="http://www.w3.org/2000/svg" width="1432" height="651"><path d="M0 0 C52.23423466 -0.03425852 104.46847019 -0.0660969 156.70271301 -0.08468628 C157.86351229 -0.08510045 157.86351229 -0.08510045 159.04776207 -0.08552299 C175.86852757 -0.09150969 192.6892932 -0.09704993 209.51005901 -0.10213066 C217.7597171 -0.10462519 226.00937516 -0.10721832 234.2590332 -0.10986328 C235.49040178 -0.11025556 235.49040178 -0.11025556 236.74664649 -0.11065576 C263.32436267 -0.11916879 289.90207032 -0.13418418 316.47978134 -0.15259444 C343.8063125 -0.1714889 371.13283894 -0.18377767 398.45937652 -0.18782998 C402.32468174 -0.18840624 406.18998694 -0.18905751 410.05529213 -0.18975449 C410.81599216 -0.18988933 411.57669219 -0.19002418 412.36044374 -0.19016311 C424.57431059 -0.19252071 436.78816278 -0.20178101 449.00202366 -0.21366407 C461.30002744 -0.22548018 473.59801679 -0.22992558 485.89602604 -0.22700275 C492.55164138 -0.22562147 499.20722288 -0.2276484 505.86283302 -0.23841095 C511.96849973 -0.2482116 518.07409526 -0.24859108 524.17976538 -0.24179779 C526.37662658 -0.24095936 528.57349239 -0.24343831 530.77034464 -0.24976636 C549.36818136 -0.30017768 567.65715384 0.80558861 585.9375 4.375 C587.08935791 4.59559082 588.24121582 4.81618164 589.42797852 5.04345703 C597.45059723 6.61513798 605.23954106 8.40435162 613 11 C614.1135083 11.35916504 614.1135083 11.35916504 615.24951172 11.72558594 C627.05539348 15.54630505 638.09962322 20.07756721 649 26 C649.60537598 26.32081543 650.21075195 26.64163086 650.83447266 26.97216797 C659.96483835 31.82182809 667.99416151 37.4739641 676 44 C676.56332031 44.4429541 677.12664063 44.8859082 677.70703125 45.34228516 C679.17541563 46.51621892 680.59247157 47.75375087 682 49 C682 49.66 682 50.32 682 51 C682.57492187 51.24234375 683.14984375 51.4846875 683.7421875 51.734375 C704.39172784 63.30954986 715.08963181 95.6463124 721.03125 116.64453125 C729.51851723 151.73938125 724.96606019 191.02405568 706.20996094 222.11132812 C700.53219992 230.97395105 693.80594957 240.89518363 686 248 C685.34 248 684.68 248 684 248 C683.67 248.99 683.34 249.98 683 251 C671.02426941 262.3711306 656.56737787 271.38714436 642 279 C641.36320313 279.33741211 640.72640625 279.67482422 640.0703125 280.02246094 C598.20960068 301.91390462 552.39470475 304.53335794 506.20684814 304.20599365 C501.31827794 304.17475777 496.42965781 304.16148855 491.54101562 304.14648438 C482.02721709 304.11474867 472.51363353 304.0638635 463 304 C463.06077672 323.75105576 463.13844512 343.50197815 463.23571491 363.25288868 C463.28050311 372.42549801 463.31995593 381.59806998 463.34643555 390.77075195 C463.36955417 398.77432091 463.40310403 406.77776994 463.44870156 414.7812435 C463.47244875 419.01116543 463.4912977 423.24096996 463.49761391 427.4709568 C462.51335371 467.27565537 462.51335371 467.27565537 480.375 501.4375 C481.179375 502.2109375 481.179375 502.2109375 482 503 C482 503.66 482 504.32 482 505 C482.55042969 505.26167969 483.10085938 505.52335937 483.66796875 505.79296875 C486.3136911 507.16236273 488.78484449 508.73577436 491.3125 510.3125 C510.30625156 521.35591164 532.82252393 523.25360306 554.28491211 525.04931641 C555.30251869 525.13511208 555.30251869 525.13511208 556.34068298 525.22264099 C558.20203398 525.37752671 560.06389572 525.52623872 561.92578125 525.67456055 C565 526 565 526 569 527 C569 530.63 569 534.26 569 538 C469.67 538 370.34 538 268 538 C268 534.37 268 530.74 268 527 C268.91136719 526.89042969 269.82273437 526.78085937 270.76171875 526.66796875 C274.34749216 526.2291129 277.93112804 525.77694648 281.51416016 525.31640625 C283.18516078 525.10371554 284.85673033 524.8954521 286.52880859 524.69140625 C306.5445571 522.2335315 326.60975741 519.05196062 342 505 C342.66 505 343.32 505 344 505 C344.28101563 504.41347656 344.56203125 503.82695312 344.8515625 503.22265625 C345.91044442 501.17332356 347.08210493 499.3439026 348.375 497.4375 C359.84500797 479.01801661 359.15845717 454.77651419 359.13371277 433.83618164 C359.13558723 432.38342226 359.13789043 430.93066338 359.14057809 429.47790527 C359.14662414 425.53562816 359.14657112 421.59337249 359.14538372 417.65109181 C359.14517786 413.37956884 359.15071594 409.10805243 359.15544128 404.83653259 C359.16370897 396.48599496 359.16649437 388.1354644 359.16705366 379.78492302 C359.16753071 372.98869441 359.16959483 366.19246811 359.17275429 359.39624023 C359.18155058 340.07819782 359.18617532 320.76016093 359.18542381 301.4421165 C359.18538386 300.40305887 359.1853439 299.36400125 359.18530273 298.29345703 C359.18526185 297.25311349 359.18522097 296.21276995 359.18517885 295.14090085 C359.18477276 278.29665426 359.19433567 261.45243006 359.2084411 244.60818994 C359.2228491 227.2641356 359.22970885 209.92009215 359.22884732 192.57603168 C359.22851686 182.85822413 359.2311974 173.14044006 359.24202538 163.42263794 C359.25118887 155.14637676 359.25325814 146.87014969 359.24651595 138.5938856 C359.24327986 134.38227311 359.24308677 130.17072584 359.2518692 125.9591198 C361.02806023 75.99680416 361.02806023 75.99680416 339.76953125 32.59765625 C318.93395197 13.78584184 291.55262568 14.10072752 265 15 C244.88363235 16.05451654 225.14636608 20.84668772 211 36 C196.25645499 53.53675568 194.84600054 75.78103274 194.86196899 97.69598389 C194.85954839 99.40057765 194.85668533 101.10517084 194.85341966 102.80976319 C194.84569276 107.48054228 194.84404865 112.15130665 194.84336853 116.82209134 C194.84152398 121.86533123 194.83391416 126.90856262 194.82688904 131.95179749 C194.8153757 140.68986657 194.80712471 149.42793373 194.80076981 158.166008 C194.79042438 171.99254113 194.76985466 185.8190504 194.74765015 199.64556885 C194.74017069 204.38084022 194.73275687 209.1161117 194.72536278 213.85138321 C194.72258693 215.62647204 194.72258693 215.62647204 194.719755 217.43742125 C194.69883623 230.90245169 194.68000533 244.36748476 194.66210938 257.83251953 C194.66047119 259.06302663 194.65883301 260.29353373 194.65714519 261.56132892 C194.63088842 281.47963374 194.61222863 301.3979404 194.59551747 321.31625518 C194.57806255 341.79135786 194.54918012 362.26642443 194.5106281 382.74149823 C194.48730032 395.3551924 194.47324005 407.96882767 194.47130047 420.58254358 C194.46918199 429.23924169 194.45617707 437.89588137 194.43482114 446.55255321 C194.42286155 451.53740738 194.41559403 456.52214563 194.42153358 461.50701332 C194.46156166 500.23737158 194.46156166 500.23737158 191 517 C190.8505088 517.75177001 190.70101759 518.50354003 190.54699636 519.27809095 C186.97356239 537.1058612 180.8157762 554.09990018 172 570 C171.64147949 570.64839844 171.28295898 571.29679688 170.91357422 571.96484375 C166.03565727 580.67310026 160.64548809 588.51452221 154 596 C153.54222168 596.52335938 153.08444336 597.04671875 152.61279297 597.5859375 C125.39538192 628.5979525 86.03351834 646.80028801 45 650 C39.02012038 650.26824666 33.0377218 650.24820304 27.05322266 650.20581055 C24.34398174 650.18728793 21.6350796 650.18530345 18.92578125 650.18554688 C17.18749705 650.18063918 15.44921515 650.17481416 13.7109375 650.16796875 C12.90884857 650.16685593 12.10675964 650.1657431 11.28036499 650.16459656 C10.52832794 650.15821671 9.77629089 650.15183685 9.00146484 650.14526367 C8.34721527 650.14145187 7.6929657 650.13764008 7.01889038 650.13371277 C4.65411752 649.97709192 2.32393085 649.46478617 0 649 C0 645.37 0 641.74 0 638 C0.98097656 637.90203125 1.96195313 637.8040625 2.97265625 637.703125 C27.17469153 635.10238149 50.31806455 626.8168925 66.74609375 608 C68.26009509 606.04949438 69.64750362 604.06556037 71 602 C71.75216797 600.86111328 71.75216797 600.86111328 72.51953125 599.69921875 C82.65066058 583.61765397 87.26213856 564.77645947 89 546 C89.08221764 545.15032546 89.16443529 544.30065091 89.24914438 543.42522866 C90.09543267 533.79324934 90.14306547 524.22285707 90.13371277 514.5634613 C90.13558402 512.7185844 90.13788597 510.8737079 90.14057809 509.02883202 C90.14666373 503.98890622 90.14656633 498.94899709 90.14538372 493.90906847 C90.14517889 488.46168984 90.15070632 483.01431646 90.15544128 477.56694031 C90.16373076 466.90523578 90.16649536 456.24353678 90.16705366 445.5818293 C90.16752966 436.91049448 90.16958857 428.23916147 90.17275429 419.56782722 C90.18155642 394.95473284 90.18618048 370.34164255 90.18542381 345.72854661 C90.18540387 345.06600401 90.18538392 344.4034614 90.18536337 343.72084175 C90.18532294 342.38102 90.18528114 341.04119826 90.18523798 339.70137652 C90.18462558 318.86788661 90.1921273 298.03441299 90.20581055 277.20092773 C90.22119985 253.76055681 90.22976239 230.32019582 90.22884732 206.87981945 C90.22851602 194.48154749 90.23123407 182.0832939 90.24202538 169.68502617 C90.25115605 159.12743913 90.25328462 148.5698788 90.24651595 138.01228952 C90.24326361 132.63261991 90.24314729 127.25300145 90.2518692 121.87333679 C90.2597924 116.93523266 90.25824409 111.99721975 90.24958507 107.05911768 C90.24806278 105.28594506 90.24981741 103.51276542 90.25544515 101.73960107 C90.28267335 92.5411452 89.99374434 83.45913345 89.09782887 74.29997349 C89.0187426 73.4885696 88.93965634 72.67716571 88.85817353 71.84117382 C87.11314939 55.57687115 82.25377085 41.27815215 70 30 C50.36602406 15.43083951 23.44749251 14.27459809 0 12 C0 8.04 0 4.08 0 0 Z M463 22 C463 108.13 463 194.26 463 283 C528.64487247 283.70473985 528.64487247 283.70473985 582 251 C597.61731519 234.29089681 606.09766109 214.12303217 611 192 C611.16661133 191.2776416 611.33322266 190.5552832 611.50488281 189.81103516 C616.88624323 165.45007337 616.13143077 136.32047869 611 112 C610.82839355 111.1862793 610.65678711 110.37255859 610.47998047 109.53417969 C604.21478045 81.1028252 590.33228118 55.41945204 565.44921875 39.1328125 C533.75226042 19.1524887 500.55169263 22 463 22 Z " fill="#FFFFFF" transform="translate(0,0)"/><path d="M0 0 C65.01 0 130.02 0 197 0 C206.65206649 21.00743883 216.29342478 42.01814893 225.8984375 63.046875 C230.63931244 73.41623871 235.42800921 83.76349814 240.21261597 94.11273193 C245.65594412 105.88958517 251.05246487 117.68654378 256.40802002 129.50354004 C261.53654638 140.81633443 266.72524819 152.10055544 271.9375 163.375 C279.68107477 180.12593648 287.37031879 196.90102761 295.03222656 213.68945312 C298.01855357 220.23227473 301.00973465 226.77287725 304.00045776 233.31369019 C304.99410222 235.48709971 305.98745443 237.66064256 306.98071289 239.83422852 C310.06061852 246.57370026 313.14224874 253.3123667 316.23013306 260.04818726 C317.66395818 263.17617777 319.09678328 266.30462592 320.52954102 269.43310547 C321.20254866 270.9019196 321.87602781 272.37051781 322.55004883 273.83886719 C325.94083888 281.22597631 329.28954377 288.6264482 332.52734375 296.08203125 C335.87754271 303.7891022 339.40780657 311.40320889 343 319 C343.60288804 320.27700716 344.2057524 321.55402549 344.80859375 322.83105469 C346.05341434 325.46660301 347.29905506 328.10176253 348.54492188 330.73681641 C357.21198342 349.07633177 365.6596572 367.50982264 374 386 C377.0170543 382.42011002 378.79053262 378.36789073 380.66796875 374.125 C381.01959579 373.34106873 381.37122284 372.55713745 381.73350525 371.74945068 C382.88969451 369.16844227 384.03864755 366.5842815 385.1875 364 C385.99748336 362.18764636 386.80787292 360.37547421 387.61865234 358.56347656 C389.69034801 353.92971944 391.75577043 349.29319888 393.81866455 344.65551758 C394.92885408 342.15992854 396.04011139 339.6648187 397.15185547 337.16992188 C401.4502375 327.52262399 405.73580289 317.86967051 410.01751709 308.21496582 C412.98840441 301.51722707 415.96270224 294.82100263 418.9375 288.125 C419.43185043 287.01205063 419.43185043 287.01205063 419.93618774 285.87661743 C425.39058354 273.59852911 430.87712677 261.33501951 436.37133789 249.07470703 C442.5102663 235.37161609 448.58197647 221.63947956 454.63879395 207.89993286 C460.75319618 194.03417369 466.94498657 180.20512344 473.18286133 166.39453125 C478.850758 153.84039343 484.42096299 141.24631602 489.9375 128.625 C496.45576564 113.71322451 503.09848296 98.86233496 509.82519531 84.04348755 C515.41109182 71.73770159 520.95643862 59.41535971 526.4375 47.0625 C526.76415649 46.32664673 527.09081299 45.59079346 527.42736816 44.8326416 C530.52980096 37.84275768 533.6259194 30.85010853 536.71308899 23.85346985 C537.56707007 21.91878113 538.42213593 19.98457585 539.27758789 18.05053711 C540.3118193 15.71130577 541.34371145 13.37103819 542.37280273 11.02954102 C542.82469971 10.00787842 543.27659668 8.98621582 543.7421875 7.93359375 C544.1326123 7.04728271 544.52303711 6.16097168 544.92529297 5.24780273 C546 3 546 3 548 0 C550.5273429 -0.29462789 552.81020502 -0.39138848 555.3397522 -0.36076355 C556.48775191 -0.36460846 556.48775191 -0.36460846 557.65894353 -0.36853105 C560.23719522 -0.37349357 562.8148682 -0.35693585 565.39306641 -0.34057617 C567.23570237 -0.33973043 569.07833935 -0.340204 570.92097473 -0.34190369 C575.93524706 -0.34276713 580.94930566 -0.32508495 585.96352816 -0.30418181 C591.19925647 -0.28547311 596.43498927 -0.28366917 601.67074585 -0.28010559 C611.59073913 -0.27076801 621.51063364 -0.24613111 631.43058336 -0.21605712 C642.72181576 -0.18256633 654.0130528 -0.16604051 665.30432248 -0.15097082 C688.53626982 -0.11958301 711.76812938 -0.06678931 735 0 C735 3.96 735 7.92 735 12 C733.19917969 12.17015625 731.39835937 12.3403125 729.54296875 12.515625 C693.10599681 15.18640479 693.10599681 15.18640479 661.8515625 32.18359375 C660 34 660 34 658 34 C657.73960937 34.53109375 657.47921875 35.0621875 657.2109375 35.609375 C656.31078913 37.38644211 655.37225281 39.14416976 654.4140625 40.890625 C645.61635387 57.41033989 643.84740004 74.04195712 643.85955811 92.57052612 C643.85697112 94.15280133 643.85395703 95.73507589 643.8505547 97.31734955 C643.84252046 101.64994296 643.84069713 105.98251977 643.83995724 110.31511974 C643.83810039 114.99430977 643.83054983 119.67349131 643.82382202 124.35267639 C643.8102629 134.5782985 643.80421756 144.80391667 643.79981136 155.02954626 C643.79704445 161.42107698 643.79280624 167.81260619 643.78830719 174.20413589 C643.77611694 191.91877332 643.76581763 209.63340954 643.7624321 227.34805107 C643.76210275 229.04745292 643.76210275 229.04745292 643.76176675 230.78118611 C643.76154847 231.91675446 643.76133019 233.05232281 643.7611053 234.22230232 C643.76066184 236.52320155 643.76021528 238.82410077 643.75976562 241.125 C643.75943348 242.83696991 643.75943348 242.83696991 643.75909463 244.58352508 C643.7551498 263.06116782 643.73770432 281.53877104 643.7144061 300.01639853 C643.69065026 319.01115522 643.6782283 338.00589211 643.67706418 357.00066388 C643.67614972 367.65572648 643.67045538 378.31073761 643.65224457 388.96578598 C643.63678626 398.0420303 643.6317567 407.11820723 643.63998267 416.19446222 C643.64386917 420.81858784 643.64305835 425.442578 643.62892532 430.06668663 C642.4114698 469.36910951 642.4114698 469.36910951 658.8125 503.85546875 C676.84663638 521.53536317 704.57387269 523.52811319 728.40063477 525.69042969 C731 526 731 526 735 527 C735 530.63 735 534.26 735 538 C640.29 538 545.58 538 448 538 C448 534.37 448 530.74 448 527 C448.91136719 526.89042969 449.82273437 526.78085937 450.76171875 526.66796875 C454.35202123 526.2285586 457.93984706 525.77357379 461.52734375 525.31201172 C463.17754969 525.10378076 464.82862055 524.90229455 466.48046875 524.70751953 C483.65303726 522.68075708 502.45464155 520.02307427 517 510 C517.64710938 509.56300781 518.29421875 509.12601562 518.9609375 508.67578125 C531.57546616 499.06340024 535.58605551 482.5637968 537.70403296 467.66194391 C538.9563171 456.39883121 539.14982429 445.07125306 539.15821838 433.75061035 C539.16280008 432.28899521 539.16780236 430.82738133 539.17318195 429.36576891 C539.18658978 425.39996887 539.19413013 421.43417725 539.20060861 417.46836066 C539.20869014 413.17274999 539.22236059 408.87715644 539.23532104 404.58155823 C539.25697503 397.1558944 539.2751594 389.73022875 539.29092598 382.30455017 C539.31372637 371.56852382 539.34185453 360.83251651 539.37124526 350.09650642 C539.41879726 332.67420934 539.46209464 315.25190443 539.50268555 297.82958984 C539.54210379 280.91454459 539.58354497 263.99950627 539.62768555 247.08447266 C539.63177196 245.51812485 539.63177196 245.51812485 539.63594092 243.92013365 C539.64962144 238.6810547 539.6633415 233.44197586 539.67708123 228.20289707 C539.79085112 184.80194588 539.89770313 141.40097965 540 98 C537.08857227 99.45571386 536.78980032 101.38297398 535.5234375 104.359375 C534.77791626 106.09670898 534.77791626 106.09670898 534.01733398 107.86914062 C533.46986951 109.16275203 532.92242555 110.45637212 532.375 111.75 C531.79506117 113.10642312 531.21439661 114.46253616 530.63305664 115.81835938 C529.39040186 118.71820229 528.15093509 121.61937877 526.91357422 124.52148438 C524.10404192 131.10476716 521.25887872 137.67262858 518.41519165 144.24121094 C517.42549995 146.52772407 516.4366484 148.81459893 515.44799805 151.1015625 C504.29926533 176.8869164 493.13798378 202.6679357 481.79638672 228.36914062 C475.20229193 243.32503204 468.74196026 258.33962669 462.25874329 273.34382629 C460.6518527 277.06263321 459.04476307 280.78135406 457.4375 284.5 C457.10775177 285.26293365 456.77800354 286.02586731 456.43826294 286.81192017 C448.60873874 304.9242305 440.738256 323.01869961 432.8661499 341.11253357 C429.86902688 348.00150836 426.87349557 354.89117348 423.87890625 361.78125 C415.75133561 380.4809032 407.61820627 399.17809083 399.46743774 417.86764526 C393.20987689 432.21660277 386.96641752 446.57166642 380.72729492 460.9286499 C376.28287737 471.1557295 371.83609673 481.3817454 367.375 491.6015625 C367.00636337 492.44611496 366.63772675 493.29066742 366.25791931 494.16081238 C365.89428787 494.9938942 365.53065643 495.82697601 365.15600586 496.68530273 C357.70258729 513.76145437 350.30583837 530.86012149 343 548 C340.6796875 547.81152344 340.6796875 547.81152344 338 547 C336.4453125 544.86816406 336.4453125 544.86816406 335.125 542.015625 C334.62121826 540.94932861 334.11743652 539.88303223 333.59838867 538.78442383 C333.07092041 537.61806396 332.54345215 536.4517041 332 535.25 C331.43544522 534.03668031 330.86942011 532.82404379 330.30200195 531.61206055 C328.50524345 527.75455047 326.74807275 523.87977478 325 520 C324.56732819 519.04036346 324.56732819 519.04036346 324.12591553 518.06134033 C321.57803937 512.40447747 319.04366165 506.74163702 316.52539062 501.0715332 C313.52877902 494.34053547 310.44055383 487.69635358 307.07885742 481.14135742 C303.28892727 473.7040924 299.83974235 466.10777164 296.33984375 458.53100586 C295.76830596 457.29407259 295.19669009 456.05717539 294.625 454.8203125 C294.18921631 453.87748161 294.18921631 453.87748161 293.74462891 452.91560364 C290.20110307 445.25920313 286.598769 437.63054209 283 430 C277.02220175 417.31970342 271.09441004 404.61739659 265.19921875 391.8984375 C261.87160379 384.71946369 258.53279397 377.54574788 255.1875 370.375 C254.90035126 369.75945251 254.61320251 369.14390503 254.31735229 368.50970459 C249.54714724 358.2872419 244.7457036 348.07963341 239.9375 337.875 C232.90210473 322.94248346 225.92946221 307.98202813 219 293 C218.48453613 291.88657227 217.96907227 290.77314453 217.43798828 289.62597656 C212.59344204 279.16005737 207.75629199 268.69194086 203.01513672 258.17871094 C199.85719295 251.18028827 196.67229115 244.2173338 193.1875 237.375 C188.04558421 227.27584473 183.37043087 216.95555864 178.62084961 206.66802979 C175.45406841 199.81132365 172.25911144 192.96783702 169.0625 186.125 C168.17926843 184.23373372 167.29609905 182.3424384 166.41293335 180.45114136 C165.82249452 179.18674078 165.23202006 177.92235682 164.64151001 176.6579895 C162.61438805 172.31723524 160.58981743 167.97529757 158.56640625 163.6328125 C157.41942489 161.17180317 156.27226664 158.71087635 155.125 156.25 C154.84321899 155.64552032 154.56143799 155.04104065 154.27111816 154.41824341 C150.75231001 146.87172205 147.21833527 139.33251019 143.66796875 131.80078125 C143.12245361 130.64323837 143.12245361 130.64323837 142.56591797 129.46231079 C140.7926761 125.70024659 139.0179021 121.93891663 137.24072266 118.17871094 C136.59404191 116.80795856 135.94739319 115.43719108 135.30078125 114.06640625 C134.86574532 113.14798698 134.86574532 113.14798698 134.42192078 112.21101379 C132.52054471 108.17640688 130.74909882 104.10180753 129 100 C128.9312491 145.79323486 128.87842823 191.58646424 128.84680401 237.37974058 C128.84305214 242.7929554 128.83916915 248.20617011 128.83520508 253.61938477 C128.83441815 254.69700341 128.83363122 255.77462206 128.83282044 256.88489582 C128.81978651 274.30583126 128.79614381 291.72673682 128.76854161 309.14765457 C128.7404313 327.03923079 128.72381187 344.93079143 128.71773452 362.82238883 C128.71362972 373.85167494 128.70069152 384.88087661 128.6762506 395.91013672 C128.66032388 403.4857465 128.65561525 411.06131297 128.65949587 418.63693825 C128.66140668 422.99974895 128.65859478 427.36241266 128.64238358 431.72519684 C127.43510437 471.15425953 127.43510437 471.15425953 145 505 C162.75966159 521.85248831 189.28311946 523.59247846 212.40063477 525.69042969 C215 526 215 526 219 527 C219 530.63 219 534.26 219 538 C146.73 538 74.46 538 0 538 C0 534.37 0 530.74 0 527 C0.91136719 526.89042969 1.82273437 526.78085937 2.76171875 526.66796875 C6.34749216 526.2291129 9.93112804 525.77694648 13.51416016 525.31640625 C15.18516078 525.10371554 16.85673033 524.8954521 18.52880859 524.69140625 C39.56772675 522.1078893 62.08485737 518.66631323 77 502 C95.38109121 477.2720746 91.15416588 440.65317724 91.13072467 411.65011013 C91.12843527 407.44892844 91.13196758 403.24775069 91.13470459 399.04656982 C91.13912393 390.84330301 91.13820296 382.64004541 91.13529195 374.43677825 C91.13302259 367.76218732 91.132732 361.08759895 91.13381577 354.41300774 C91.13404561 352.98159168 91.13404561 352.98159168 91.13428011 351.52125813 C91.13459987 349.58193016 91.13492409 347.6426022 91.1352527 345.70327424 C91.1380963 327.56773733 91.13483817 309.43220549 91.12945233 291.29666942 C91.12498604 275.77777382 91.12576097 260.2588857 91.13037109 244.73999023 C91.13573794 226.66562128 91.13782096 208.59125677 91.13475883 190.51688713 C91.13444032 188.58486076 91.13412595 186.6528344 91.13381577 184.72080803 C91.13366149 183.77051648 91.13350721 182.82022492 91.13334826 181.84113665 C91.13248938 175.1847604 91.1339324 168.52838699 91.13629532 161.87201118 C91.13911705 153.74545302 91.13830546 145.6189045 91.13301457 137.49234743 C91.13040923 133.35603219 91.12931792 129.21973296 91.13266373 125.08341789 C91.17212069 104.50540945 91.17212069 104.50540945 90.57003784 83.93858337 C90.53339685 83.14124458 90.49675585 82.34390578 90.45900452 81.52240521 C89.45144132 63.06478791 85.52782979 44.33426548 71.90625 30.94140625 C52.96715311 14.98727572 23.42656555 14.30635285 0 12 C0 8.04 0 4.08 0 0 Z " fill="#FFFFFF" transform="translate(697,0)"/></svg>