<svg xmlns="http://www.w3.org/2000/svg" ><path d="M0 0 C52.23 -0.03 104.47 -0.07 156.7 -0.08 C157.86 -0.09 157.86 -0.09 159.05 -0.09 C175.87 -0.09 192.69 -0.1 209.51 -0.1 C217.76 -0.1 226.01 -0.11 234.26 -0.11 C235.49 -0.11 235.49 -0.11 236.75 -0.11 C263.32 -0.12 289.9 -0.13 316.48 -0.15 C343.81 -0.17 371.13 -0.18 398.46 -0.19 C402.32 -0.19 406.19 -0.19 410.06 -0.19 C410.82 -0.19 411.58 -0.19 412.36 -0.19 C424.57 -0.19 436.79 -0.2 449.0 -0.21 C461.3 -0.23 473.6 -0.23 485.9 -0.23 C492.55 -0.23 499.21 -0.23 505.86 -0.24 C511.97 -0.25 518.07 -0.25 524.18 -0.24 C526.38 -0.24 528.57 -0.24 530.77 -0.25 C549.37 -0.3 567.66 0.81 585.94 4.38 C587.09 4.6 588.24 4.82 589.43 5.04 C597.45 6.62 605.24 8.4 613 11 C614.11 11.36 614.11 11.36 615.25 11.73 C627.06 15.55 638.1 20.08 649 26 C649.61 26.32 650.21 26.64 650.83 26.97 C659.96 31.82 667.99 37.47 676 44 C676.56 44.44 677.13 44.89 677.71 45.34 C679.18 46.52 680.59 47.75 682 49 C682 49.66 682 50.32 682 51 C682.57 51.24 683.15 51.48 683.74 51.73 C704.39 63.31 715.09 95.65 721.03 116.64 C729.52 151.74 724.97 191.02 706.21 222.11 C700.53 230.97 693.81 240.9 686 248 C685.34 248 684.68 248 684 248 C683.67 248.99 683.34 249.98 683 251 C671.02 262.37 656.57 271.39 642 279 C641.36 279.34 640.73 279.67 640.07 280.02 C598.21 301.91 552.39 304.53 506.21 304.21 C501.32 304.17 496.43 304.16 491.54 304.15 C482.03 304.11 472.51 304.06 463 304 C463.06 323.75 463.14 343.5 463.24 363.25 C463.28 372.43 463.32 381.6 463.35 390.77 C463.37 398.77 463.4 406.78 463.45 414.78 C463.47 419.01 463.49 423.24 463.5 427.47 C462.51 467.28 462.51 467.28 480.38 501.44 C481.18 502.21 481.18 502.21 482 503 C482 503.66 482 504.32 482 505 C482.55 505.26 483.1 505.52 483.67 505.79 C486.31 507.16 488.78 508.74 491.31 510.31 C510.31 521.36 532.82 523.25 554.28 525.05 C555.3 525.14 555.3 525.14 556.34 525.22 C558.2 525.38 560.06 525.53 561.93 525.67 C565 526 565 526 569 527 C569 530.63 569 534.26 569 538 C469.67 538 370.34 538 268 538 C268 534.37 268 530.74 268 527 C268.91 526.89 269.82 526.78 270.76 526.67 C274.35 526.23 277.93 525.78 281.51 525.32 C283.19 525.1 284.86 524.9 286.53 524.69 C306.54 522.23 326.61 519.05 342 505 C342.66 505 343.32 505 344 505 C344.28 504.41 344.56 503.83 344.85 503.22 C345.91 501.17 347.08 499.34 348.38 497.44 C359.85 479.02 359.16 454.78 359.13 433.84 C359.14 432.38 359.14 430.93 359.14 429.48 C359.15 425.54 359.15 421.59 359.15 417.65 C359.15 413.38 359.15 409.11 359.16 404.84 C359.16 396.49 359.17 388.14 359.17 379.78 C359.17 372.99 359.17 366.19 359.17 359.4 C359.18 340.08 359.19 320.76 359.19 301.44 C359.19 300.4 359.19 299.36 359.19 298.29 C359.19 297.25 359.19 296.21 359.19 295.14 C359.18 278.3 359.19 261.45 359.21 244.61 C359.22 227.26 359.23 209.92 359.23 192.58 C359.23 182.86 359.23 173.14 359.24 163.42 C359.25 155.15 359.25 146.87 359.25 138.59 C359.24 134.38 359.24 130.17 359.25 125.96 C361.03 76.0 361.03 76.0 339.77 32.6 C318.93 13.79 291.55 14.1 265 15 C244.88 16.05 225.15 20.85 211 36 C196.26 53.54 194.85 75.78 194.86 97.7 C194.86 99.4 194.86 101.11 194.85 102.81 C194.85 107.48 194.84 112.15 194.84 116.82 C194.84 121.87 194.83 126.91 194.83 131.95 C194.82 140.69 194.81 149.43 194.8 158.17 C194.79 171.99 194.77 185.82 194.75 199.65 C194.74 204.38 194.73 209.12 194.73 213.85 C194.72 215.63 194.72 215.63 194.72 217.44 C194.7 230.9 194.68 244.37 194.66 257.83 C194.66 259.06 194.66 260.29 194.66 261.56 C194.63 281.48 194.61 301.4 194.6 321.32 C194.58 341.79 194.55 362.27 194.51 382.74 C194.49 395.36 194.47 407.97 194.47 420.58 C194.47 429.24 194.46 437.9 194.43 446.55 C194.42 451.54 194.42 456.52 194.42 461.51 C194.46 500.24 194.46 500.24 191 517 C190.85 517.75 190.7 518.5 190.55 519.28 C186.97 537.11 180.82 554.1 172 570 C171.64 570.65 171.28 571.3 170.91 571.96 C166.04 580.67 160.65 588.51 154 596 C153.54 596.52 153.08 597.05 152.61 597.59 C125.4 628.6 86.03 646.8 45 650 C39.02 650.27 33.04 650.25 27.05 650.21 C24.34 650.19 21.64 650.19 18.93 650.19 C17.19 650.18 15.45 650.17 13.71 650.17 C12.91 650.17 12.11 650.17 11.28 650.16 C10.53 650.16 9.78 650.15 9.0 650.15 C8.35 650.14 7.69 650.14 7.02 650.13 C4.65 649.98 2.32 649.46 0 649 C0 645.37 0 641.74 0 638 C0.98 637.9 1.96 637.8 2.97 637.7 C27.17 635.1 50.32 626.82 66.75 608 C68.26 606.05 69.65 604.07 71 602 C71.75 600.86 71.75 600.86 72.52 599.7 C82.65 583.62 87.26 564.78 89 546 C89.08 545.15 89.16 544.3 89.25 543.43 C90.1 533.79 90.14 524.22 90.13 514.56 C90.14 512.72 90.14 510.87 90.14 509.03 C90.15 503.99 90.15 498.95 90.15 493.91 C90.15 488.46 90.15 483.01 90.16 477.57 C90.16 466.91 90.17 456.24 90.17 445.58 C90.17 436.91 90.17 428.24 90.17 419.57 C90.18 394.95 90.19 370.34 90.19 345.73 C90.19 345.07 90.19 344.4 90.19 343.72 C90.19 342.38 90.19 341.04 90.19 339.7 C90.18 318.87 90.19 298.03 90.21 277.2 C90.22 253.76 90.23 230.32 90.23 206.88 C90.23 194.48 90.23 182.08 90.24 169.69 C90.25 159.13 90.25 148.57 90.25 138.01 C90.24 132.63 90.24 127.25 90.25 121.87 C90.26 116.94 90.26 112.0 90.25 107.06 C90.25 105.29 90.25 103.51 90.26 101.74 C90.28 92.54 89.99 83.46 89.1 74.3 C89.02 73.49 88.94 72.68 88.86 71.84 C87.11 55.58 82.25 41.28 70 30 C50.37 15.43 23.45 14.27 0 12 C0 8.04 0 4.08 0 0 Z M463 22 C463 108.13 463 194.26 463 283 C528.64 283.7 528.64 283.7 582 251 C597.62 234.29 606.1 214.12 611 192 C611.17 191.28 611.33 190.56 611.5 189.81 C616.89 165.45 616.13 136.32 611 112 C610.83 111.19 610.66 110.37 610.48 109.53 C604.21 81.1 590.33 55.42 565.45 39.13 C533.75 19.15 500.55 22 463 22 Z " fill="#FFFFFF" transform="translate(0,0)"/><path d="M0 0 C65.01 0 130.02 0 197 0 C206.65 21.01 216.29 42.02 225.9 63.05 C230.64 73.42 235.43 83.76 240.21 94.11 C245.66 105.89 251.05 117.69 256.41 129.5 C261.54 140.82 266.73 152.1 271.94 163.38 C279.68 180.13 287.37 196.9 295.03 213.69 C298.02 220.23 301.01 226.77 304.0 233.31 C304.99 235.49 305.99 237.66 306.98 239.83 C310.06 246.57 313.14 253.31 316.23 260.05 C317.66 263.18 319.1 266.3 320.53 269.43 C321.2 270.9 321.88 272.37 322.55 273.84 C325.94 281.23 329.29 288.63 332.53 296.08 C335.88 303.79 339.41 311.4 343 319 C343.6 320.28 344.21 321.55 344.81 322.83 C346.05 325.47 347.3 328.1 348.54 330.74 C357.21 349.08 365.66 367.51 374 386 C377.02 382.42 378.79 378.37 380.67 374.12 C381.02 373.34 381.37 372.56 381.73 371.75 C382.89 369.17 384.04 366.58 385.19 364 C386.0 362.19 386.81 360.38 387.62 358.56 C389.69 353.93 391.76 349.29 393.82 344.66 C394.93 342.16 396.04 339.66 397.15 337.17 C401.45 327.52 405.74 317.87 410.02 308.21 C412.99 301.52 415.96 294.82 418.94 288.12 C419.43 287.01 419.43 287.01 419.94 285.88 C425.39 273.6 430.88 261.34 436.37 249.07 C442.51 235.37 448.58 221.64 454.64 207.9 C460.75 194.03 466.94 180.21 473.18 166.39 C478.85 153.84 484.42 141.25 489.94 128.62 C496.46 113.71 503.1 98.86 509.83 84.04 C515.41 71.74 520.96 59.42 526.44 47.06 C526.76 46.33 527.09 45.59 527.43 44.83 C530.53 37.84 533.63 30.85 536.71 23.85 C537.57 21.92 538.42 19.98 539.28 18.05 C540.31 15.71 541.34 13.37 542.37 11.03 C542.82 10.01 543.28 8.99 543.74 7.93 C544.13 7.05 544.52 6.16 544.93 5.25 C546 3 546 3 548 0 C550.53 -0.29 552.81 -0.39 555.34 -0.36 C556.49 -0.36 556.49 -0.36 557.66 -0.37 C560.24 -0.37 562.81 -0.36 565.39 -0.34 C567.24 -0.34 569.08 -0.34 570.92 -0.34 C575.94 -0.34 580.95 -0.33 585.96 -0.3 C591.2 -0.29 596.43 -0.28 601.67 -0.28 C611.59 -0.27 621.51 -0.25 631.43 -0.22 C642.72 -0.18 654.01 -0.17 665.3 -0.15 C688.54 -0.12 711.77 -0.07 735 0 C735 3.96 735 7.92 735 12 C733.2 12.17 731.4 12.34 729.54 12.52 C693.11 15.19 693.11 15.19 661.85 32.18 C660 34 660 34 658 34 C657.74 34.53 657.48 35.06 657.21 35.61 C656.31 37.39 655.37 39.14 654.41 40.89 C645.62 57.41 643.85 74.04 643.86 92.57 C643.86 94.15 643.85 95.74 643.85 97.32 C643.84 101.65 643.84 105.98 643.84 110.32 C643.84 114.99 643.83 119.67 643.82 124.35 C643.81 134.58 643.8 144.8 643.8 155.03 C643.8 161.42 643.79 167.81 643.79 174.2 C643.78 191.92 643.77 209.63 643.76 227.35 C643.76 229.05 643.76 229.05 643.76 230.78 C643.76 231.92 643.76 233.05 643.76 234.22 C643.76 236.52 643.76 238.82 643.76 241.12 C643.76 242.84 643.76 242.84 643.76 244.58 C643.76 263.06 643.74 281.54 643.71 300.02 C643.69 319.01 643.68 338.01 643.68 357.0 C643.68 367.66 643.67 378.31 643.65 388.97 C643.64 398.04 643.63 407.12 643.64 416.19 C643.64 420.82 643.64 425.44 643.63 430.07 C642.41 469.37 642.41 469.37 658.81 503.86 C676.85 521.54 704.57 523.53 728.4 525.69 C731 526 731 526 735 527 C735 530.63 735 534.26 735 538 C640.29 538 545.58 538 448 538 C448 534.37 448 530.74 448 527 C448.91 526.89 449.82 526.78 450.76 526.67 C454.35 526.23 457.94 525.77 461.53 525.31 C463.18 525.1 464.83 524.9 466.48 524.71 C483.65 522.68 502.45 520.02 517 510 C517.65 509.56 518.29 509.13 518.96 508.68 C531.58 499.06 535.59 482.56 537.7 467.66 C538.96 456.4 539.15 445.07 539.16 433.75 C539.16 432.29 539.17 430.83 539.17 429.37 C539.19 425.4 539.19 421.43 539.2 417.47 C539.21 413.17 539.22 408.88 539.24 404.58 C539.26 397.16 539.28 389.73 539.29 382.3 C539.31 371.57 539.34 360.83 539.37 350.1 C539.42 332.67 539.46 315.25 539.5 297.83 C539.54 280.91 539.58 264.0 539.63 247.08 C539.63 245.52 539.63 245.52 539.64 243.92 C539.65 238.68 539.66 233.44 539.68 228.2 C539.79 184.8 539.9 141.4 540 98 C537.09 99.46 536.79 101.38 535.52 104.36 C534.78 106.1 534.78 106.1 534.02 107.87 C533.47 109.16 532.92 110.46 532.38 111.75 C531.8 113.11 531.21 114.46 530.63 115.82 C529.39 118.72 528.15 121.62 526.91 124.52 C524.1 131.1 521.26 137.67 518.42 144.24 C517.43 146.53 516.44 148.81 515.45 151.1 C504.3 176.89 493.14 202.67 481.8 228.37 C475.2 243.33 468.74 258.34 462.26 273.34 C460.65 277.06 459.04 280.78 457.44 284.5 C457.11 285.26 456.78 286.03 456.44 286.81 C448.61 304.92 440.74 323.02 432.87 341.11 C429.87 348.0 426.87 354.89 423.88 361.78 C415.75 380.48 407.62 399.18 399.47 417.87 C393.21 432.22 386.97 446.57 380.73 460.93 C376.28 471.16 371.84 481.38 367.38 491.6 C367.01 492.45 366.64 493.29 366.26 494.16 C365.89 494.99 365.53 495.83 365.16 496.69 C357.7 513.76 350.31 530.86 343 548 C340.68 547.81 340.68 547.81 338 547 C336.45 544.87 336.45 544.87 335.12 542.02 C334.62 540.95 334.12 539.88 333.6 538.78 C333.07 537.62 332.54 536.45 332 535.25 C331.44 534.04 330.87 532.82 330.3 531.61 C328.51 527.75 326.75 523.88 325 520 C324.57 519.04 324.57 519.04 324.13 518.06 C321.58 512.4 319.04 506.74 316.53 501.07 C313.53 494.34 310.44 487.7 307.08 481.14 C303.29 473.7 299.84 466.11 296.34 458.53 C295.77 457.29 295.2 456.06 294.62 454.82 C294.19 453.88 294.19 453.88 293.74 452.92 C290.2 445.26 286.6 437.63 283 430 C277.02 417.32 271.09 404.62 265.2 391.9 C261.87 384.72 258.53 377.55 255.19 370.38 C254.9 369.76 254.61 369.14 254.32 368.51 C249.55 358.29 244.75 348.08 239.94 337.88 C232.9 322.94 225.93 307.98 219 293 C218.48 291.89 217.97 290.77 217.44 289.63 C212.59 279.16 207.76 268.69 203.02 258.18 C199.86 251.18 196.67 244.22 193.19 237.38 C188.05 227.28 183.37 216.96 178.62 206.67 C175.45 199.81 172.26 192.97 169.06 186.12 C168.18 184.23 167.3 182.34 166.41 180.45 C165.82 179.19 165.23 177.92 164.64 176.66 C162.61 172.32 160.59 167.98 158.57 163.63 C157.42 161.17 156.27 158.71 155.12 156.25 C154.84 155.65 154.56 155.04 154.27 154.42 C150.75 146.87 147.22 139.33 143.67 131.8 C143.12 130.64 143.12 130.64 142.57 129.46 C140.79 125.7 139.02 121.94 137.24 118.18 C136.59 116.81 135.95 115.44 135.3 114.07 C134.87 113.15 134.87 113.15 134.42 112.21 C132.52 108.18 130.75 104.1 129 100 C128.93 145.79 128.88 191.59 128.85 237.38 C128.84 242.79 128.84 248.21 128.84 253.62 C128.83 254.7 128.83 255.77 128.83 256.88 C128.82 274.31 128.8 291.73 128.77 309.15 C128.74 327.04 128.72 344.93 128.72 362.82 C128.71 373.85 128.7 384.88 128.68 395.91 C128.66 403.49 128.66 411.06 128.66 418.64 C128.66 423.0 128.66 427.36 128.64 431.73 C127.44 471.15 127.44 471.15 145 505 C162.76 521.85 189.28 523.59 212.4 525.69 C215 526 215 526 219 527 C219 530.63 219 534.26 219 538 C146.73 538 74.46 538 0 538 C0 534.37 0 530.74 0 527 C0.91 526.89 1.82 526.78 2.76 526.67 C6.35 526.23 9.93 525.78 13.51 525.32 C15.19 525.1 16.86 524.9 18.53 524.69 C39.57 522.11 62.08 518.67 77 502 C95.38 477.27 91.15 440.65 91.13 411.65 C91.13 407.45 91.13 403.25 91.13 399.05 C91.14 390.84 91.14 382.64 91.14 374.44 C91.13 367.76 91.13 361.09 91.13 354.41 C91.13 352.98 91.13 352.98 91.13 351.52 C91.13 349.58 91.13 347.64 91.14 345.7 C91.14 327.57 91.13 309.43 91.13 291.3 C91.12 275.78 91.13 260.26 91.13 244.74 C91.14 226.67 91.14 208.59 91.13 190.52 C91.13 188.58 91.13 186.65 91.13 184.72 C91.13 183.77 91.13 182.82 91.13 181.84 C91.13 175.18 91.13 168.53 91.14 161.87 C91.14 153.75 91.14 145.62 91.13 137.49 C91.13 133.36 91.13 129.22 91.13 125.08 C91.17 104.51 91.17 104.51 90.57 83.94 C90.53 83.14 90.5 82.34 90.46 81.52 C89.45 63.06 85.53 44.33 71.91 30.94 C52.97 14.99 23.43 14.31 0 12 C0 8.04 0 4.08 0 0 Z " fill="#FFFFFF" transform="translate(697,0)"/></svg>